<svg width="77" height="12" viewBox="0 0 77 12" fill="none" xmlns="http://www.w3.org/2000/svg">
<g clip-path="url(#clip0_62_18)">
<path d="M9.768 12.048C8.264 12.048 6.968 12.048 5.88 12.048C4.792 12.048 3.88 12.048 3.144 12.048C2.408 12.048 1.784 12.032 1.272 12V2.064C1.272 1.6 1.368 1.304 1.56 1.176C1.768 1.032 2.048 0.96 2.4 0.96C3.088 0.96 3.672 0.96 4.152 0.96C4.648 0.944 5.072 0.935999 5.424 0.935999C5.776 0.92 6.112 0.912 6.432 0.912C6.752 0.912 7.096 0.912 7.464 0.912C7.912 0.912 8.4 0.92 8.928 0.935999C9.472 0.935999 9.976 0.935999 10.44 0.935999C10.92 0.935999 11.264 0.944 11.472 0.96C12.352 1.024 13.016 1.264 13.464 1.68C13.912 2.096 14.136 2.752 14.136 3.648C14.136 4.288 14.024 4.792 13.8 5.16C13.592 5.512 13.328 5.768 13.008 5.928C12.688 6.072 12.36 6.152 12.024 6.168C12.44 6.168 12.8 6.208 13.104 6.288C13.424 6.368 13.688 6.504 13.896 6.696C14.104 6.872 14.264 7.136 14.376 7.488C14.488 7.84 14.544 8.28 14.544 8.808C14.544 9.528 14.448 10.104 14.256 10.536C14.08 10.952 13.8 11.272 13.416 11.496C13.032 11.704 12.536 11.848 11.928 11.928C11.32 12.008 10.6 12.048 9.768 12.048ZM8.496 10.176C8.816 10.176 9.104 10.168 9.36 10.152C9.616 10.136 9.832 10.088 10.008 10.008C10.2 9.912 10.344 9.76 10.44 9.552C10.552 9.328 10.608 9.024 10.608 8.64C10.608 8.096 10.496 7.72 10.272 7.512C10.048 7.304 9.584 7.2 8.88 7.2H5.544C5.24 7.2 5.048 7.056 4.968 6.768C4.904 6.464 4.872 6.024 4.872 5.448H8.76C9.032 5.448 9.272 5.416 9.48 5.352C9.704 5.288 9.872 5.152 9.984 4.944C10.112 4.72 10.176 4.384 10.176 3.936C10.176 3.488 10.088 3.152 9.912 2.928C9.736 2.704 9.448 2.584 9.048 2.568C8.84 2.552 8.6 2.544 8.328 2.544C8.072 2.544 7.816 2.544 7.56 2.544C7.256 2.544 6.952 2.544 6.648 2.544C6.36 2.544 6.096 2.544 5.856 2.544C5.664 2.544 5.504 2.6 5.376 2.712C5.264 2.824 5.208 2.992 5.208 3.216V10.176C5.464 10.176 5.664 10.176 5.808 10.176C5.968 10.176 6.136 10.176 6.312 10.176C6.488 10.176 6.736 10.176 7.056 10.176C7.392 10.176 7.872 10.176 8.496 10.176ZM14.3876 12L18.2036 2.832C18.4596 2.208 18.8276 1.728 19.3076 1.392C19.7876 1.04 20.5396 0.864 21.5636 0.864C22.4116 0.864 23.0996 1.024 23.6276 1.344C24.1556 1.664 24.5556 2.16 24.8276 2.832L28.6676 12H24.3956L23.3636 9.528H18.3716L17.4116 12H14.3876ZM18.9956 8.016H22.6436L21.3476 4.656C21.2996 4.528 21.2436 4.416 21.1796 4.32C21.1156 4.208 21.0036 4.152 20.8436 4.152C20.6676 4.152 20.5396 4.208 20.4596 4.32C20.3956 4.416 20.3396 4.528 20.2916 4.656L18.9956 8.016ZM36.0926 8.28C36.0926 8.28 35.9326 8.28 35.6126 8.28C35.3086 8.28 34.9166 8.288 34.4366 8.304C33.9566 8.304 33.4606 8.304 32.9486 8.304V12H29.0126V2.424C29.0126 1.96 29.1166 1.6 29.3246 1.344C29.5326 1.088 29.9566 0.96 30.5966 0.96C30.8366 0.96 31.1966 0.96 31.6766 0.96C32.1566 0.944 32.7086 0.935999 33.3326 0.935999C33.9566 0.935999 34.5966 0.935999 35.2526 0.935999C35.9246 0.92 36.5646 0.92 37.1726 0.935999C37.7806 0.935999 38.3086 0.944 38.7566 0.96C39.2206 0.96 39.5566 0.968 39.7646 0.983999C40.6286 1.064 41.2766 1.328 41.7086 1.776C42.1406 2.208 42.3566 2.92 42.3566 3.912C42.3566 4.808 42.2846 5.464 42.1406 5.88C42.0126 6.28 41.7966 6.592 41.4926 6.816C41.3806 6.896 41.2286 6.96 41.0366 7.008C40.8446 7.056 40.6286 7.08 40.3886 7.08V7.176C40.5006 7.176 40.6206 7.176 40.7486 7.176C40.8926 7.176 41.0126 7.184 41.1086 7.2C41.7166 7.312 42.0766 7.544 42.1886 7.896C42.3166 8.248 42.3806 8.616 42.3806 9V11.112C42.3806 11.416 42.4126 11.64 42.4766 11.784C42.5406 11.912 42.5806 11.984 42.5966 12H39.6686C39.2526 12 38.9246 11.936 38.6846 11.808C38.4606 11.68 38.3486 11.408 38.3486 10.992V9.408C38.3486 8.912 38.2366 8.6 38.0126 8.472C37.8046 8.344 37.4286 8.28 36.8846 8.28H36.0926ZM32.9486 6.408C33.1246 6.408 33.3886 6.416 33.7406 6.432C34.1086 6.432 34.5086 6.432 34.9406 6.432C35.3726 6.432 35.7646 6.432 36.1166 6.432C36.4846 6.432 36.7486 6.432 36.9086 6.432C37.2926 6.432 37.6286 6.312 37.9166 6.072C38.2206 5.816 38.3726 5.344 38.3726 4.656C38.3726 4.176 38.2846 3.8 38.1086 3.528C37.9486 3.256 37.6766 3.104 37.2926 3.072C37.0686 3.024 36.7646 3 36.3806 3C36.0126 3 35.6206 3 35.2046 3C34.8046 3 34.4366 3.008 34.1006 3.024C33.7646 3.024 33.5166 3.024 33.3566 3.024C33.3246 3.024 33.2446 3.048 33.1166 3.096C33.0046 3.144 32.9486 3.264 32.9486 3.456V6.408ZM57.2198 6.528C57.2198 7.696 57.0838 8.648 56.8118 9.384C56.5558 10.104 56.1478 10.656 55.5878 11.04C55.0438 11.424 54.3478 11.688 53.4998 11.832C52.6518 11.96 51.6358 12.024 50.4518 12.024C49.7318 12.024 49.0438 12.024 48.3878 12.024C47.7318 12.024 47.1158 12.016 46.5398 12C45.9638 12 45.4198 12 44.9078 12C44.4118 12 43.9478 12 43.5158 12V2.544C43.5158 1.984 43.6278 1.584 43.8518 1.344C44.0758 1.104 44.4918 0.976 45.0998 0.96C45.5158 0.96 45.9638 0.96 46.4438 0.96C46.9398 0.944 47.4358 0.935999 47.9318 0.935999C48.4438 0.935999 48.9478 0.935999 49.4438 0.935999C49.9558 0.935999 50.4278 0.935999 50.8598 0.935999C51.9958 0.952 52.9638 1.04 53.7638 1.2C54.5638 1.344 55.2198 1.616 55.7318 2.016C56.2438 2.4 56.6198 2.96 56.8598 3.696C57.0998 4.416 57.2198 5.36 57.2198 6.528ZM47.4518 10.008C47.6118 10.008 47.7958 10.008 48.0038 10.008C48.2278 10.008 48.4598 10.016 48.6998 10.032C48.9558 10.032 49.2038 10.032 49.4438 10.032C49.6838 10.032 49.8918 10.032 50.0678 10.032C50.6278 10.032 51.1078 9.984 51.5078 9.888C51.9078 9.792 52.2278 9.616 52.4678 9.36C52.7078 9.104 52.8838 8.744 52.9958 8.28C53.1078 7.816 53.1638 7.232 53.1638 6.528C53.1638 5.52 53.0598 4.76 52.8518 4.248C52.6598 3.736 52.3318 3.392 51.8678 3.216C51.4198 3.024 50.7878 2.928 49.9718 2.928C49.7798 2.928 49.5318 2.928 49.2278 2.928C48.9398 2.928 48.6518 2.936 48.3638 2.952C48.0758 2.952 47.8278 2.96 47.6198 2.976C47.5718 3.056 47.5318 3.152 47.4998 3.264C47.4678 3.376 47.4518 3.536 47.4518 3.744V10.008ZM58.1389 12C58.1389 10.368 58.1389 8.736 58.1389 7.104C58.1389 5.472 58.1389 3.84 58.1389 2.208C58.1389 1.936 58.1549 1.712 58.1869 1.536C58.2349 1.344 58.3469 1.2 58.5229 1.104C58.7149 1.008 59.0189 0.96 59.4349 0.96H62.0749V12H58.1389ZM62.3689 12L66.1849 2.832C66.4409 2.208 66.8089 1.728 67.2889 1.392C67.7689 1.04 68.5209 0.864 69.5449 0.864C70.3929 0.864 71.0809 1.024 71.6089 1.344C72.1369 1.664 72.5369 2.16 72.8089 2.832L76.6489 12H72.3769L71.3449 9.528H66.3529L65.3929 12H62.3689ZM66.9769 8.016H70.6249L69.3289 4.656C69.2809 4.528 69.2249 4.416 69.1609 4.32C69.0969 4.208 68.9849 4.152 68.8249 4.152C68.6489 4.152 68.5209 4.208 68.4409 4.32C68.3769 4.416 68.3209 4.528 68.2729 4.656L66.9769 8.016Z" fill="#F7D384"/>
</g>
<defs>
<clipPath id="clip0_62_18">
<rect width="77" height="12" fill="white"/>
</clipPath>
</defs>
</svg>
