<svg width="94" height="92" viewBox="0 0 94 92" fill="none" xmlns="http://www.w3.org/2000/svg">
<path d="M49.4258 65.0479L42.8628 86.97C42.4357 88.3964 40.4158 88.3964 39.9888 86.97L31.1547 57.4617C31.0113 56.9828 30.6387 56.6068 30.1611 56.459L1.05658 47.4529C-0.352194 47.0169 -0.352194 45.0229 1.05658 44.5869L30.1611 35.5808C30.6387 35.433 31.0113 35.057 31.1547 34.5781L39.9888 5.0698C40.4158 3.6434 42.4357 3.6434 42.8628 5.0698L49.4258 26.9919V65.0479Z" fill="#85ACC4"/>
<path d="M47.563 5.0499C47.99 3.6235 50.01 3.6235 50.437 5.0499L59.2711 34.5582C59.4145 35.0371 59.7871 35.4131 60.2647 35.5609L89.3692 44.567C90.778 45.003 90.778 46.997 89.3692 47.433L60.2647 56.4391C59.7871 56.5869 59.4145 56.9629 59.2711 57.4418L50.437 86.9501C50.01 88.3765 47.99 88.3765 47.563 86.9501L38.7289 57.4418C38.5855 56.9629 38.2129 56.5869 37.7353 56.4391L8.63081 47.433C7.22204 46.997 7.22203 45.003 8.63081 44.567L37.7353 35.5609C38.2129 35.4131 38.5855 35.0371 38.7289 34.5582L47.563 5.0499Z" fill="#B9DAEE"/>
</svg>
