<svg xmlns="http://www.w3.org/2000/svg" version="1.1" xmlns:xlink="http://www.w3.org/1999/xlink" xmlns:svgjs="http://svgjs.dev/svgjs" width="115" height="115"><svg width="115" height="115" viewBox="0 0 115 115" fill="none" xmlns="http://www.w3.org/2000/svg">
<g clip-path="url(#clip0_48_10)">
<path d="M73.6166 115C60.5847 115 49.355 115 39.9277 115C30.5003 115 22.5979 115 16.2206 115C9.84328 115 4.43641 114.835 0 114.504V11.8965C0 7.10488 0.831827 4.04813 2.49548 2.72629C4.29777 1.23922 6.72393 0.495691 9.77396 0.495691C15.7354 0.495691 20.7957 0.495691 24.9548 0.495691C29.2526 0.330458 32.9265 0.247842 35.9765 0.247842C39.0265 0.0826139 41.9379 0 44.7107 0C47.4834 0 50.4641 0 53.6528 0C57.5347 0 61.7631 0.0826139 66.3382 0.247842C71.0518 0.247842 75.4189 0.247842 79.4394 0.247842C83.5986 0.247842 86.5793 0.330458 88.3816 0.495691C96.0066 1.15661 101.76 3.63505 105.642 7.93104C109.524 12.227 111.465 19.0014 111.465 28.2543C111.465 34.8635 110.494 40.0682 108.553 43.8685C106.751 47.5036 104.464 50.1473 101.691 51.7996C98.918 53.2866 96.076 54.1128 93.1646 54.278C96.7691 54.278 99.8885 54.6911 102.523 55.5172C105.295 56.3434 107.583 57.7478 109.385 59.7306C111.187 61.5481 112.574 64.2744 113.544 67.9095C114.515 71.5445 115 76.0884 115 81.5409C115 88.9763 114.168 94.9246 112.505 99.3858C110.98 103.682 108.553 106.986 105.226 109.3C101.899 111.448 97.601 112.935 92.3327 113.761C87.0645 114.587 80.8258 115 73.6166 115ZM62.5949 95.6681C65.3677 95.6681 67.8632 95.5855 70.0814 95.4203C72.2996 95.255 74.1712 94.7593 75.6962 93.9332C77.3599 92.9418 78.6076 91.3721 79.4394 89.2241C80.4099 86.9109 80.8951 83.7716 80.8951 79.806C80.8951 74.1882 79.9247 70.3053 77.9837 68.1573C76.0428 66.0093 72.0223 64.9353 65.9222 64.9353H37.0163C34.3822 64.9353 32.7185 63.4483 32.0253 60.4741C31.4708 57.3348 31.1935 52.791 31.1935 46.8427H64.8825C67.2393 46.8427 69.3189 46.5122 71.1212 45.8513C73.0621 45.1904 74.5178 43.7859 75.4882 41.6379C76.5974 39.3247 77.1519 35.8549 77.1519 31.2284C77.1519 26.602 76.3894 23.1322 74.8644 20.819C73.3394 18.5057 70.8439 17.2665 67.3779 17.1013C65.5757 16.9361 63.4961 16.8534 61.1392 16.8534C58.921 16.8534 56.7028 16.8534 54.4846 16.8534C51.8505 16.8534 49.2164 16.8534 46.5823 16.8534C44.0868 16.8534 41.7993 16.8534 39.7197 16.8534C38.0561 16.8534 36.6697 17.4317 35.5606 18.5884C34.5901 19.745 34.1049 21.4799 34.1049 23.7931V95.6681C36.3231 95.6681 38.0561 95.6681 39.3038 95.6681C40.6902 95.6681 42.1459 95.6681 43.6709 95.6681C45.1959 95.6681 47.3448 95.6681 50.1175 95.6681C53.0289 95.6681 57.1881 95.6681 62.5949 95.6681Z" fill="#E9BC5A"></path>
</g>
<defs>
<clipPath id="SvgjsClipPath1005">
<rect width="115" height="115" fill="white"></rect>
</clipPath>
</defs>
</svg><style>@media (prefers-color-scheme: light) { :root { filter: none; } }
@media (prefers-color-scheme: dark) { :root { filter: none; } }
</style></svg>